%TF.GenerationSoftware,KiCad,Pcbnew,7.0.5*%
%TF.CreationDate,2023-09-25T20:55:42-06:00*%
%TF.ProjectId,switch_tester_macro_pad_r2,73776974-6368-45f7-9465-737465725f6d,rev?*%
%TF.SameCoordinates,Original*%
%TF.FileFunction,Soldermask,Top*%
%TF.FilePolarity,Negative*%
%FSLAX46Y46*%
G04 Gerber Fmt 4.6, Leading zero omitted, Abs format (unit mm)*
G04 Created by KiCad (PCBNEW 7.0.5) date 2023-09-25 20:55:42*
%MOMM*%
%LPD*%
G01*
G04 APERTURE LIST*
%ADD10C,1.750000*%
%ADD11C,3.987800*%
G04 APERTURE END LIST*
D10*
%TO.C,K24*%
X130954038Y-113043897D03*
D11*
X136034038Y-113043897D03*
D10*
X141114038Y-113043897D03*
%TD*%
%TO.C,K23*%
X111954038Y-113043897D03*
D11*
X117034038Y-113043897D03*
D10*
X122114038Y-113043897D03*
%TD*%
%TO.C,K22*%
X92954038Y-113043897D03*
D11*
X98034038Y-113043897D03*
D10*
X103114038Y-113043897D03*
%TD*%
%TO.C,K21*%
X73954038Y-113043897D03*
D11*
X79034038Y-113043897D03*
D10*
X84114038Y-113043897D03*
%TD*%
%TO.C,K20*%
X54954038Y-113043897D03*
D11*
X60034038Y-113043897D03*
D10*
X65114038Y-113043897D03*
%TD*%
%TO.C,K19*%
X54954038Y-94043897D03*
D11*
X60034038Y-94043897D03*
D10*
X65114038Y-94043897D03*
%TD*%
%TO.C,K18*%
X73954038Y-94043897D03*
D11*
X79034038Y-94043897D03*
D10*
X84114038Y-94043897D03*
%TD*%
%TO.C,K17*%
X92954038Y-94043897D03*
D11*
X98034038Y-94043897D03*
D10*
X103114038Y-94043897D03*
%TD*%
%TO.C,K16*%
X111954038Y-94043897D03*
D11*
X117034038Y-94043897D03*
D10*
X122114038Y-94043897D03*
%TD*%
%TO.C,K15*%
X130954038Y-94043897D03*
D11*
X136034038Y-94043897D03*
D10*
X141114038Y-94043897D03*
%TD*%
%TO.C,K14*%
X130954038Y-75043897D03*
D11*
X136034038Y-75043897D03*
D10*
X141114038Y-75043897D03*
%TD*%
%TO.C,K13*%
X111954038Y-75043897D03*
D11*
X117034038Y-75043897D03*
D10*
X122114038Y-75043897D03*
%TD*%
%TO.C,K12*%
X92954038Y-75043897D03*
D11*
X98034038Y-75043897D03*
D10*
X103114038Y-75043897D03*
%TD*%
%TO.C,K11*%
X73954038Y-75043897D03*
D11*
X79034038Y-75043897D03*
D10*
X84114038Y-75043897D03*
%TD*%
%TO.C,K10*%
X54954038Y-75043897D03*
D11*
X60034038Y-75043897D03*
D10*
X65114038Y-75043897D03*
%TD*%
%TO.C,K9*%
X54954038Y-56043897D03*
D11*
X60034038Y-56043897D03*
D10*
X65114038Y-56043897D03*
%TD*%
%TO.C,K8*%
X73954038Y-56043897D03*
D11*
X79034038Y-56043897D03*
D10*
X84114038Y-56043897D03*
%TD*%
%TO.C,K7*%
X92954038Y-56043897D03*
D11*
X98034038Y-56043897D03*
D10*
X103114038Y-56043897D03*
%TD*%
%TO.C,K6*%
X111954038Y-56043897D03*
D11*
X117034038Y-56043897D03*
D10*
X122114038Y-56043897D03*
%TD*%
%TO.C,K5*%
X130954038Y-56043897D03*
D11*
X136034038Y-56043897D03*
D10*
X141114038Y-56043897D03*
%TD*%
%TO.C,K4*%
X130954038Y-37043897D03*
D11*
X136034038Y-37043897D03*
D10*
X141114038Y-37043897D03*
%TD*%
%TO.C,K3*%
X111954038Y-37043897D03*
D11*
X117034038Y-37043897D03*
D10*
X122114038Y-37043897D03*
%TD*%
%TO.C,K2*%
X84114038Y-37043897D03*
D11*
X79034038Y-37043897D03*
D10*
X73954038Y-37043897D03*
%TD*%
%TO.C,K1*%
X65114038Y-37043897D03*
D11*
X60034038Y-37043897D03*
D10*
X54954038Y-37043897D03*
%TD*%
M02*
