M48
; DRILL file {KiCad 7.0.5} date Mon Sep 25 20:55:38 2023
; FORMAT={-:-/ absolute / inch / decimal}
; #@! TF.CreationDate,2023-09-25T20:55:38-06:00
; #@! TF.GenerationSoftware,Kicad,Pcbnew,7.0.5
; #@! TF.FileFunction,Plated,1,2,PTH
FMAT,2
INCH
; #@! TA.AperFunction,Plated,PTH,ViaDrill
T1C0.0157
; #@! TA.AperFunction,Plated,PTH,ComponentDrill
T2C0.0157
; #@! TA.AperFunction,Plated,PTH,ComponentDrill
T3C0.1181
%
G90
G05
T1
X2.1063Y-2.5591
X2.1063Y-4.0551
X2.126Y-1.1614
X2.126Y-3.1299
X2.126Y-4.626
X2.2441Y-3.0906
X2.2638Y-1.5945
X2.2638Y-4.5866
X2.4606Y-2.4016
X2.4606Y-3.8976
X2.5394Y-1.1614
X3.0118Y-1.5945
X3.0118Y-3.0906
X3.0118Y-4.5866
X3.2087Y-2.4016
X3.2087Y-3.8976
X3.2766Y-1.5909
X3.2874Y-1.8307
X3.377Y-1.7913
X3.4646Y-1.2795
X3.4646Y-1.3189
X3.5039Y-1.2795
X3.5039Y-1.3189
X3.5433Y-1.2795
X3.5433Y-1.3189
X3.6024Y-1.5945
X3.7598Y-3.0906
X3.7598Y-4.5866
X3.937Y-1.5945
X3.9567Y-2.4016
X3.9567Y-3.8976
X4.0069Y-1.7323
X4.0157Y-1.2008
X4.0354Y-1.6929
X4.066Y-1.7323
X4.1142Y-4.159
X4.1311Y-2.6629
X4.1311Y-3.411
X4.1692Y-1.7964
X4.2164Y-1.1492
X4.2913Y-1.2008
X4.5079Y-1.5945
X4.5079Y-1.6535
X4.5079Y-3.0906
X4.5079Y-4.5866
X4.7047Y-2.4016
X4.7047Y-3.8976
X4.9722Y-1.1703
X5.0Y-1.1417
X5.2559Y-1.5945
X5.2559Y-3.0906
X5.2559Y-4.5866
X5.4528Y-2.4016
X5.4528Y-3.8976
X5.4549Y-3.835
X5.4579Y-2.3389
X5.4724Y-1.5945
X5.4724Y-3.0906
T2
X2.0135Y-1.3284
X2.0135Y-1.3884
X2.0135Y-2.0765
X2.0135Y-2.1365
X2.0135Y-2.8245
X2.0135Y-2.8845
X2.0135Y-3.5725
X2.0135Y-3.6325
X2.0135Y-4.3205
X2.0135Y-4.3805
X2.6635Y-1.2284
X2.6635Y-1.2884
X2.6635Y-1.9765
X2.6635Y-2.0365
X2.6635Y-2.7245
X2.6635Y-2.7845
X2.6635Y-3.4725
X2.6635Y-3.5325
X2.6635Y-4.2205
X2.6635Y-4.2805
X2.7616Y-1.3284
X2.7616Y-1.3884
X2.7616Y-2.0765
X2.7616Y-2.1365
X2.7616Y-2.8245
X2.7616Y-2.8845
X2.7616Y-3.5725
X2.7616Y-3.6325
X2.7616Y-4.3205
X2.7616Y-4.3805
X3.4116Y-1.2284
X3.4116Y-1.2884
X3.4116Y-1.9765
X3.4116Y-2.0365
X3.4116Y-2.7245
X3.4116Y-2.7845
X3.4116Y-3.4725
X3.4116Y-3.5325
X3.4116Y-4.2205
X3.4116Y-4.2805
X3.5096Y-2.0765
X3.5096Y-2.1365
X3.5096Y-2.8245
X3.5096Y-2.8845
X3.5096Y-3.5725
X3.5096Y-3.6325
X3.5096Y-4.3205
X3.5096Y-4.3805
X4.1596Y-1.9765
X4.1596Y-2.0365
X4.1596Y-2.7245
X4.1596Y-2.7845
X4.1596Y-3.4725
X4.1596Y-3.5325
X4.1596Y-4.2205
X4.1596Y-4.2805
X4.2576Y-1.3284
X4.2576Y-1.3884
X4.2576Y-2.0765
X4.2576Y-2.1365
X4.2576Y-2.8245
X4.2576Y-2.8845
X4.2576Y-3.5725
X4.2576Y-3.6325
X4.2576Y-4.3205
X4.2576Y-4.3805
X4.9076Y-1.2284
X4.9076Y-1.2884
X4.9076Y-1.9765
X4.9076Y-2.0365
X4.9076Y-2.7245
X4.9076Y-2.7845
X4.9076Y-3.4725
X4.9076Y-3.5325
X4.9076Y-4.2205
X4.9076Y-4.2805
X5.0057Y-1.3284
X5.0057Y-1.3884
X5.0057Y-2.0765
X5.0057Y-2.1365
X5.0057Y-2.8245
X5.0057Y-2.8845
X5.0057Y-3.5725
X5.0057Y-3.6325
X5.0057Y-4.3205
X5.0057Y-4.3805
X5.6557Y-1.2284
X5.6557Y-1.2884
X5.6557Y-1.9765
X5.6557Y-2.0365
X5.6557Y-2.7245
X5.6557Y-2.7845
X5.6557Y-3.4725
X5.6557Y-3.5325
X5.6557Y-4.2205
X5.6557Y-4.2805
T3
X2.2135Y-1.3584
X2.2135Y-2.1065
X2.2135Y-2.8545
X2.2135Y-3.6025
X2.2135Y-4.3505
X2.4635Y-1.2584
X2.4635Y-2.0065
X2.4635Y-2.7545
X2.4635Y-3.5025
X2.4635Y-4.2505
X2.9616Y-1.3584
X2.9616Y-2.1065
X2.9616Y-2.8545
X2.9616Y-3.6025
X2.9616Y-4.3505
X3.2116Y-1.2584
X3.2116Y-2.0065
X3.2116Y-2.7545
X3.2116Y-3.5025
X3.2116Y-4.2505
X3.7096Y-2.1065
X3.7096Y-2.8545
X3.7096Y-3.6025
X3.7096Y-4.3505
X3.9596Y-2.0065
X3.9596Y-2.7545
X3.9596Y-3.5025
X3.9596Y-4.2505
X4.4576Y-1.3584
X4.4576Y-2.1065
X4.4576Y-2.8545
X4.4576Y-3.6025
X4.4576Y-4.3505
X4.7076Y-1.2584
X4.7076Y-2.0065
X4.7076Y-2.7545
X4.7076Y-3.5025
X4.7076Y-4.2505
X5.2057Y-1.3584
X5.2057Y-2.1065
X5.2057Y-2.8545
X5.2057Y-3.6025
X5.2057Y-4.3505
X5.4557Y-1.2584
X5.4557Y-2.0065
X5.4557Y-2.7545
X5.4557Y-3.5025
X5.4557Y-4.2505
T0
M30
