M48
; DRILL file {KiCad 7.0.5} date Mon Sep 25 20:55:38 2023
; FORMAT={-:-/ absolute / inch / decimal}
; #@! TF.CreationDate,2023-09-25T20:55:38-06:00
; #@! TF.GenerationSoftware,Kicad,Pcbnew,7.0.5
; #@! TF.FileFunction,NonPlated,1,2,NPTH
FMAT,2
INCH
; #@! TA.AperFunction,NonPlated,NPTH,ComponentDrill
T1C0.0689
; #@! TA.AperFunction,NonPlated,NPTH,ComponentDrill
T2C0.1570
%
G90
G05
T1
X2.1635Y-1.4584
X2.1635Y-2.2065
X2.1635Y-2.9545
X2.1635Y-3.7025
X2.1635Y-4.4505
X2.5635Y-1.4584
X2.5635Y-2.2065
X2.5635Y-2.9545
X2.5635Y-3.7025
X2.5635Y-4.4505
X2.9116Y-1.4584
X2.9116Y-2.2065
X2.9116Y-2.9545
X2.9116Y-3.7025
X2.9116Y-4.4505
X3.3116Y-1.4584
X3.3116Y-2.2065
X3.3116Y-2.9545
X3.3116Y-3.7025
X3.3116Y-4.4505
X3.6596Y-2.2065
X3.6596Y-2.9545
X3.6596Y-3.7025
X3.6596Y-4.4505
X4.0596Y-2.2065
X4.0596Y-2.9545
X4.0596Y-3.7025
X4.0596Y-4.4505
X4.4076Y-1.4584
X4.4076Y-2.2065
X4.4076Y-2.9545
X4.4076Y-3.7025
X4.4076Y-4.4505
X4.8076Y-1.4584
X4.8076Y-2.2065
X4.8076Y-2.9545
X4.8076Y-3.7025
X4.8076Y-4.4505
X5.1557Y-1.4584
X5.1557Y-2.2065
X5.1557Y-2.9545
X5.1557Y-3.7025
X5.1557Y-4.4505
X5.5557Y-1.4584
X5.5557Y-2.2065
X5.5557Y-2.9545
X5.5557Y-3.7025
X5.5557Y-4.4505
T2
X2.3635Y-1.4584
X2.3635Y-2.2065
X2.3635Y-2.9545
X2.3635Y-3.7025
X2.3635Y-4.4505
X3.1116Y-1.4584
X3.1116Y-2.2065
X3.1116Y-2.9545
X3.1116Y-3.7025
X3.1116Y-4.4505
X3.8596Y-2.2065
X3.8596Y-2.9545
X3.8596Y-3.7025
X3.8596Y-4.4505
X4.6076Y-1.4584
X4.6076Y-2.2065
X4.6076Y-2.9545
X4.6076Y-3.7025
X4.6076Y-4.4505
X5.3557Y-1.4584
X5.3557Y-2.2065
X5.3557Y-2.9545
X5.3557Y-3.7025
X5.3557Y-4.4505
T0
M30
