%TF.GenerationSoftware,KiCad,Pcbnew,7.0.5*%
%TF.CreationDate,2023-09-25T20:55:41-06:00*%
%TF.ProjectId,switch_tester_macro_pad_r2,73776974-6368-45f7-9465-737465725f6d,rev?*%
%TF.SameCoordinates,Original*%
%TF.FileFunction,Legend,Bot*%
%TF.FilePolarity,Positive*%
%FSLAX46Y46*%
G04 Gerber Fmt 4.6, Leading zero omitted, Abs format (unit mm)*
G04 Created by KiCad (PCBNEW 7.0.5) date 2023-09-25 20:55:41*
%MOMM*%
%LPD*%
G01*
G04 APERTURE LIST*
%ADD10C,0.101600*%
%ADD11C,0.150000*%
%ADD12C,0.100000*%
%ADD13C,0.127000*%
%ADD14C,0.120000*%
%ADD15C,0.254000*%
%ADD16C,0.025400*%
G04 APERTURE END LIST*
D10*
%TO.C,U1*%
X98074050Y-40066372D02*
X98074050Y-40786039D01*
X98074050Y-40786039D02*
X98031717Y-40870705D01*
X98031717Y-40870705D02*
X97989383Y-40913039D01*
X97989383Y-40913039D02*
X97904717Y-40955372D01*
X97904717Y-40955372D02*
X97735383Y-40955372D01*
X97735383Y-40955372D02*
X97650717Y-40913039D01*
X97650717Y-40913039D02*
X97608383Y-40870705D01*
X97608383Y-40870705D02*
X97566050Y-40786039D01*
X97566050Y-40786039D02*
X97566050Y-40066372D01*
X96677050Y-40955372D02*
X97185050Y-40955372D01*
X96931050Y-40955372D02*
X96931050Y-40066372D01*
X96931050Y-40066372D02*
X97015717Y-40193372D01*
X97015717Y-40193372D02*
X97100384Y-40278039D01*
X97100384Y-40278039D02*
X97185050Y-40320372D01*
D11*
X98920525Y-37964206D02*
X98253859Y-38964206D01*
X98253859Y-37964206D02*
X98920525Y-38964206D01*
X97872906Y-38964206D02*
X97872906Y-37964206D01*
X97444335Y-38678491D02*
X96968145Y-38678491D01*
X97539573Y-38964206D02*
X97206240Y-37964206D01*
X97206240Y-37964206D02*
X96872907Y-38964206D01*
X96349097Y-37964206D02*
X96158621Y-37964206D01*
X96158621Y-37964206D02*
X96063383Y-38011825D01*
X96063383Y-38011825D02*
X95968145Y-38107063D01*
X95968145Y-38107063D02*
X95920526Y-38297539D01*
X95920526Y-38297539D02*
X95920526Y-38630872D01*
X95920526Y-38630872D02*
X95968145Y-38821348D01*
X95968145Y-38821348D02*
X96063383Y-38916587D01*
X96063383Y-38916587D02*
X96158621Y-38964206D01*
X96158621Y-38964206D02*
X96349097Y-38964206D01*
X96349097Y-38964206D02*
X96444335Y-38916587D01*
X96444335Y-38916587D02*
X96539573Y-38821348D01*
X96539573Y-38821348D02*
X96587192Y-38630872D01*
X96587192Y-38630872D02*
X96587192Y-38297539D01*
X96587192Y-38297539D02*
X96539573Y-38107063D01*
X96539573Y-38107063D02*
X96444335Y-38011825D01*
X96444335Y-38011825D02*
X96349097Y-37964206D01*
X102158621Y-36916587D02*
X102015764Y-36964206D01*
X102015764Y-36964206D02*
X101777669Y-36964206D01*
X101777669Y-36964206D02*
X101682431Y-36916587D01*
X101682431Y-36916587D02*
X101634812Y-36868967D01*
X101634812Y-36868967D02*
X101587193Y-36773729D01*
X101587193Y-36773729D02*
X101587193Y-36678491D01*
X101587193Y-36678491D02*
X101634812Y-36583253D01*
X101634812Y-36583253D02*
X101682431Y-36535634D01*
X101682431Y-36535634D02*
X101777669Y-36488015D01*
X101777669Y-36488015D02*
X101968145Y-36440396D01*
X101968145Y-36440396D02*
X102063383Y-36392777D01*
X102063383Y-36392777D02*
X102111002Y-36345158D01*
X102111002Y-36345158D02*
X102158621Y-36249920D01*
X102158621Y-36249920D02*
X102158621Y-36154682D01*
X102158621Y-36154682D02*
X102111002Y-36059444D01*
X102111002Y-36059444D02*
X102063383Y-36011825D01*
X102063383Y-36011825D02*
X101968145Y-35964206D01*
X101968145Y-35964206D02*
X101730050Y-35964206D01*
X101730050Y-35964206D02*
X101587193Y-36011825D01*
X100777669Y-36916587D02*
X100872907Y-36964206D01*
X100872907Y-36964206D02*
X101063383Y-36964206D01*
X101063383Y-36964206D02*
X101158621Y-36916587D01*
X101158621Y-36916587D02*
X101206240Y-36821348D01*
X101206240Y-36821348D02*
X101206240Y-36440396D01*
X101206240Y-36440396D02*
X101158621Y-36345158D01*
X101158621Y-36345158D02*
X101063383Y-36297539D01*
X101063383Y-36297539D02*
X100872907Y-36297539D01*
X100872907Y-36297539D02*
X100777669Y-36345158D01*
X100777669Y-36345158D02*
X100730050Y-36440396D01*
X100730050Y-36440396D02*
X100730050Y-36535634D01*
X100730050Y-36535634D02*
X101206240Y-36630872D01*
X99920526Y-36916587D02*
X100015764Y-36964206D01*
X100015764Y-36964206D02*
X100206240Y-36964206D01*
X100206240Y-36964206D02*
X100301478Y-36916587D01*
X100301478Y-36916587D02*
X100349097Y-36821348D01*
X100349097Y-36821348D02*
X100349097Y-36440396D01*
X100349097Y-36440396D02*
X100301478Y-36345158D01*
X100301478Y-36345158D02*
X100206240Y-36297539D01*
X100206240Y-36297539D02*
X100015764Y-36297539D01*
X100015764Y-36297539D02*
X99920526Y-36345158D01*
X99920526Y-36345158D02*
X99872907Y-36440396D01*
X99872907Y-36440396D02*
X99872907Y-36535634D01*
X99872907Y-36535634D02*
X100349097Y-36630872D01*
X99063383Y-36916587D02*
X99158621Y-36964206D01*
X99158621Y-36964206D02*
X99349097Y-36964206D01*
X99349097Y-36964206D02*
X99444335Y-36916587D01*
X99444335Y-36916587D02*
X99491954Y-36821348D01*
X99491954Y-36821348D02*
X99491954Y-36440396D01*
X99491954Y-36440396D02*
X99444335Y-36345158D01*
X99444335Y-36345158D02*
X99349097Y-36297539D01*
X99349097Y-36297539D02*
X99158621Y-36297539D01*
X99158621Y-36297539D02*
X99063383Y-36345158D01*
X99063383Y-36345158D02*
X99015764Y-36440396D01*
X99015764Y-36440396D02*
X99015764Y-36535634D01*
X99015764Y-36535634D02*
X99491954Y-36630872D01*
X98158621Y-36964206D02*
X98158621Y-35964206D01*
X98158621Y-36916587D02*
X98253859Y-36964206D01*
X98253859Y-36964206D02*
X98444335Y-36964206D01*
X98444335Y-36964206D02*
X98539573Y-36916587D01*
X98539573Y-36916587D02*
X98587192Y-36868967D01*
X98587192Y-36868967D02*
X98634811Y-36773729D01*
X98634811Y-36773729D02*
X98634811Y-36488015D01*
X98634811Y-36488015D02*
X98587192Y-36392777D01*
X98587192Y-36392777D02*
X98539573Y-36345158D01*
X98539573Y-36345158D02*
X98444335Y-36297539D01*
X98444335Y-36297539D02*
X98253859Y-36297539D01*
X98253859Y-36297539D02*
X98158621Y-36345158D01*
X96968144Y-36916587D02*
X96825287Y-36964206D01*
X96825287Y-36964206D02*
X96587192Y-36964206D01*
X96587192Y-36964206D02*
X96491954Y-36916587D01*
X96491954Y-36916587D02*
X96444335Y-36868967D01*
X96444335Y-36868967D02*
X96396716Y-36773729D01*
X96396716Y-36773729D02*
X96396716Y-36678491D01*
X96396716Y-36678491D02*
X96444335Y-36583253D01*
X96444335Y-36583253D02*
X96491954Y-36535634D01*
X96491954Y-36535634D02*
X96587192Y-36488015D01*
X96587192Y-36488015D02*
X96777668Y-36440396D01*
X96777668Y-36440396D02*
X96872906Y-36392777D01*
X96872906Y-36392777D02*
X96920525Y-36345158D01*
X96920525Y-36345158D02*
X96968144Y-36249920D01*
X96968144Y-36249920D02*
X96968144Y-36154682D01*
X96968144Y-36154682D02*
X96920525Y-36059444D01*
X96920525Y-36059444D02*
X96872906Y-36011825D01*
X96872906Y-36011825D02*
X96777668Y-35964206D01*
X96777668Y-35964206D02*
X96539573Y-35964206D01*
X96539573Y-35964206D02*
X96396716Y-36011825D01*
X96111001Y-36297539D02*
X95730049Y-36297539D01*
X95968144Y-35964206D02*
X95968144Y-36821348D01*
X95968144Y-36821348D02*
X95920525Y-36916587D01*
X95920525Y-36916587D02*
X95825287Y-36964206D01*
X95825287Y-36964206D02*
X95730049Y-36964206D01*
X94968144Y-36297539D02*
X94968144Y-36964206D01*
X95396715Y-36297539D02*
X95396715Y-36821348D01*
X95396715Y-36821348D02*
X95349096Y-36916587D01*
X95349096Y-36916587D02*
X95253858Y-36964206D01*
X95253858Y-36964206D02*
X95111001Y-36964206D01*
X95111001Y-36964206D02*
X95015763Y-36916587D01*
X95015763Y-36916587D02*
X94968144Y-36868967D01*
X94063382Y-36964206D02*
X94063382Y-35964206D01*
X94063382Y-36916587D02*
X94158620Y-36964206D01*
X94158620Y-36964206D02*
X94349096Y-36964206D01*
X94349096Y-36964206D02*
X94444334Y-36916587D01*
X94444334Y-36916587D02*
X94491953Y-36868967D01*
X94491953Y-36868967D02*
X94539572Y-36773729D01*
X94539572Y-36773729D02*
X94539572Y-36488015D01*
X94539572Y-36488015D02*
X94491953Y-36392777D01*
X94491953Y-36392777D02*
X94444334Y-36345158D01*
X94444334Y-36345158D02*
X94349096Y-36297539D01*
X94349096Y-36297539D02*
X94158620Y-36297539D01*
X94158620Y-36297539D02*
X94063382Y-36345158D01*
X93587191Y-36964206D02*
X93587191Y-36297539D01*
X93587191Y-35964206D02*
X93634810Y-36011825D01*
X93634810Y-36011825D02*
X93587191Y-36059444D01*
X93587191Y-36059444D02*
X93539572Y-36011825D01*
X93539572Y-36011825D02*
X93587191Y-35964206D01*
X93587191Y-35964206D02*
X93587191Y-36059444D01*
X92968144Y-36964206D02*
X93063382Y-36916587D01*
X93063382Y-36916587D02*
X93111001Y-36868967D01*
X93111001Y-36868967D02*
X93158620Y-36773729D01*
X93158620Y-36773729D02*
X93158620Y-36488015D01*
X93158620Y-36488015D02*
X93111001Y-36392777D01*
X93111001Y-36392777D02*
X93063382Y-36345158D01*
X93063382Y-36345158D02*
X92968144Y-36297539D01*
X92968144Y-36297539D02*
X92825287Y-36297539D01*
X92825287Y-36297539D02*
X92730049Y-36345158D01*
X92730049Y-36345158D02*
X92682430Y-36392777D01*
X92682430Y-36392777D02*
X92634811Y-36488015D01*
X92634811Y-36488015D02*
X92634811Y-36773729D01*
X92634811Y-36773729D02*
X92682430Y-36868967D01*
X92682430Y-36868967D02*
X92730049Y-36916587D01*
X92730049Y-36916587D02*
X92825287Y-36964206D01*
X92825287Y-36964206D02*
X92968144Y-36964206D01*
D12*
%TO.C,K24*%
X135454752Y-105246316D02*
X135454752Y-104246316D01*
X136026180Y-105246316D02*
X135597609Y-104674887D01*
X136026180Y-104246316D02*
X135454752Y-104817744D01*
X136407133Y-104341554D02*
X136454752Y-104293935D01*
X136454752Y-104293935D02*
X136549990Y-104246316D01*
X136549990Y-104246316D02*
X136788085Y-104246316D01*
X136788085Y-104246316D02*
X136883323Y-104293935D01*
X136883323Y-104293935D02*
X136930942Y-104341554D01*
X136930942Y-104341554D02*
X136978561Y-104436792D01*
X136978561Y-104436792D02*
X136978561Y-104532030D01*
X136978561Y-104532030D02*
X136930942Y-104674887D01*
X136930942Y-104674887D02*
X136359514Y-105246316D01*
X136359514Y-105246316D02*
X136978561Y-105246316D01*
X137835704Y-104579649D02*
X137835704Y-105246316D01*
X137597609Y-104198697D02*
X137359514Y-104912982D01*
X137359514Y-104912982D02*
X137978561Y-104912982D01*
%TO.C,K23*%
X116454752Y-105246316D02*
X116454752Y-104246316D01*
X117026180Y-105246316D02*
X116597609Y-104674887D01*
X117026180Y-104246316D02*
X116454752Y-104817744D01*
X117407133Y-104341554D02*
X117454752Y-104293935D01*
X117454752Y-104293935D02*
X117549990Y-104246316D01*
X117549990Y-104246316D02*
X117788085Y-104246316D01*
X117788085Y-104246316D02*
X117883323Y-104293935D01*
X117883323Y-104293935D02*
X117930942Y-104341554D01*
X117930942Y-104341554D02*
X117978561Y-104436792D01*
X117978561Y-104436792D02*
X117978561Y-104532030D01*
X117978561Y-104532030D02*
X117930942Y-104674887D01*
X117930942Y-104674887D02*
X117359514Y-105246316D01*
X117359514Y-105246316D02*
X117978561Y-105246316D01*
X118311895Y-104246316D02*
X118930942Y-104246316D01*
X118930942Y-104246316D02*
X118597609Y-104627268D01*
X118597609Y-104627268D02*
X118740466Y-104627268D01*
X118740466Y-104627268D02*
X118835704Y-104674887D01*
X118835704Y-104674887D02*
X118883323Y-104722506D01*
X118883323Y-104722506D02*
X118930942Y-104817744D01*
X118930942Y-104817744D02*
X118930942Y-105055839D01*
X118930942Y-105055839D02*
X118883323Y-105151077D01*
X118883323Y-105151077D02*
X118835704Y-105198697D01*
X118835704Y-105198697D02*
X118740466Y-105246316D01*
X118740466Y-105246316D02*
X118454752Y-105246316D01*
X118454752Y-105246316D02*
X118359514Y-105198697D01*
X118359514Y-105198697D02*
X118311895Y-105151077D01*
%TO.C,K22*%
X97454752Y-105246316D02*
X97454752Y-104246316D01*
X98026180Y-105246316D02*
X97597609Y-104674887D01*
X98026180Y-104246316D02*
X97454752Y-104817744D01*
X98407133Y-104341554D02*
X98454752Y-104293935D01*
X98454752Y-104293935D02*
X98549990Y-104246316D01*
X98549990Y-104246316D02*
X98788085Y-104246316D01*
X98788085Y-104246316D02*
X98883323Y-104293935D01*
X98883323Y-104293935D02*
X98930942Y-104341554D01*
X98930942Y-104341554D02*
X98978561Y-104436792D01*
X98978561Y-104436792D02*
X98978561Y-104532030D01*
X98978561Y-104532030D02*
X98930942Y-104674887D01*
X98930942Y-104674887D02*
X98359514Y-105246316D01*
X98359514Y-105246316D02*
X98978561Y-105246316D01*
X99359514Y-104341554D02*
X99407133Y-104293935D01*
X99407133Y-104293935D02*
X99502371Y-104246316D01*
X99502371Y-104246316D02*
X99740466Y-104246316D01*
X99740466Y-104246316D02*
X99835704Y-104293935D01*
X99835704Y-104293935D02*
X99883323Y-104341554D01*
X99883323Y-104341554D02*
X99930942Y-104436792D01*
X99930942Y-104436792D02*
X99930942Y-104532030D01*
X99930942Y-104532030D02*
X99883323Y-104674887D01*
X99883323Y-104674887D02*
X99311895Y-105246316D01*
X99311895Y-105246316D02*
X99930942Y-105246316D01*
%TO.C,K21*%
X78454752Y-105246316D02*
X78454752Y-104246316D01*
X79026180Y-105246316D02*
X78597609Y-104674887D01*
X79026180Y-104246316D02*
X78454752Y-104817744D01*
X79407133Y-104341554D02*
X79454752Y-104293935D01*
X79454752Y-104293935D02*
X79549990Y-104246316D01*
X79549990Y-104246316D02*
X79788085Y-104246316D01*
X79788085Y-104246316D02*
X79883323Y-104293935D01*
X79883323Y-104293935D02*
X79930942Y-104341554D01*
X79930942Y-104341554D02*
X79978561Y-104436792D01*
X79978561Y-104436792D02*
X79978561Y-104532030D01*
X79978561Y-104532030D02*
X79930942Y-104674887D01*
X79930942Y-104674887D02*
X79359514Y-105246316D01*
X79359514Y-105246316D02*
X79978561Y-105246316D01*
X80930942Y-105246316D02*
X80359514Y-105246316D01*
X80645228Y-105246316D02*
X80645228Y-104246316D01*
X80645228Y-104246316D02*
X80549990Y-104389173D01*
X80549990Y-104389173D02*
X80454752Y-104484411D01*
X80454752Y-104484411D02*
X80359514Y-104532030D01*
%TO.C,K20*%
X59454752Y-105246316D02*
X59454752Y-104246316D01*
X60026180Y-105246316D02*
X59597609Y-104674887D01*
X60026180Y-104246316D02*
X59454752Y-104817744D01*
X60407133Y-104341554D02*
X60454752Y-104293935D01*
X60454752Y-104293935D02*
X60549990Y-104246316D01*
X60549990Y-104246316D02*
X60788085Y-104246316D01*
X60788085Y-104246316D02*
X60883323Y-104293935D01*
X60883323Y-104293935D02*
X60930942Y-104341554D01*
X60930942Y-104341554D02*
X60978561Y-104436792D01*
X60978561Y-104436792D02*
X60978561Y-104532030D01*
X60978561Y-104532030D02*
X60930942Y-104674887D01*
X60930942Y-104674887D02*
X60359514Y-105246316D01*
X60359514Y-105246316D02*
X60978561Y-105246316D01*
X61597609Y-104246316D02*
X61692847Y-104246316D01*
X61692847Y-104246316D02*
X61788085Y-104293935D01*
X61788085Y-104293935D02*
X61835704Y-104341554D01*
X61835704Y-104341554D02*
X61883323Y-104436792D01*
X61883323Y-104436792D02*
X61930942Y-104627268D01*
X61930942Y-104627268D02*
X61930942Y-104865363D01*
X61930942Y-104865363D02*
X61883323Y-105055839D01*
X61883323Y-105055839D02*
X61835704Y-105151077D01*
X61835704Y-105151077D02*
X61788085Y-105198697D01*
X61788085Y-105198697D02*
X61692847Y-105246316D01*
X61692847Y-105246316D02*
X61597609Y-105246316D01*
X61597609Y-105246316D02*
X61502371Y-105198697D01*
X61502371Y-105198697D02*
X61454752Y-105151077D01*
X61454752Y-105151077D02*
X61407133Y-105055839D01*
X61407133Y-105055839D02*
X61359514Y-104865363D01*
X61359514Y-104865363D02*
X61359514Y-104627268D01*
X61359514Y-104627268D02*
X61407133Y-104436792D01*
X61407133Y-104436792D02*
X61454752Y-104341554D01*
X61454752Y-104341554D02*
X61502371Y-104293935D01*
X61502371Y-104293935D02*
X61597609Y-104246316D01*
%TO.C,K19*%
X59454752Y-86246316D02*
X59454752Y-85246316D01*
X60026180Y-86246316D02*
X59597609Y-85674887D01*
X60026180Y-85246316D02*
X59454752Y-85817744D01*
X60978561Y-86246316D02*
X60407133Y-86246316D01*
X60692847Y-86246316D02*
X60692847Y-85246316D01*
X60692847Y-85246316D02*
X60597609Y-85389173D01*
X60597609Y-85389173D02*
X60502371Y-85484411D01*
X60502371Y-85484411D02*
X60407133Y-85532030D01*
X61454752Y-86246316D02*
X61645228Y-86246316D01*
X61645228Y-86246316D02*
X61740466Y-86198697D01*
X61740466Y-86198697D02*
X61788085Y-86151077D01*
X61788085Y-86151077D02*
X61883323Y-86008220D01*
X61883323Y-86008220D02*
X61930942Y-85817744D01*
X61930942Y-85817744D02*
X61930942Y-85436792D01*
X61930942Y-85436792D02*
X61883323Y-85341554D01*
X61883323Y-85341554D02*
X61835704Y-85293935D01*
X61835704Y-85293935D02*
X61740466Y-85246316D01*
X61740466Y-85246316D02*
X61549990Y-85246316D01*
X61549990Y-85246316D02*
X61454752Y-85293935D01*
X61454752Y-85293935D02*
X61407133Y-85341554D01*
X61407133Y-85341554D02*
X61359514Y-85436792D01*
X61359514Y-85436792D02*
X61359514Y-85674887D01*
X61359514Y-85674887D02*
X61407133Y-85770125D01*
X61407133Y-85770125D02*
X61454752Y-85817744D01*
X61454752Y-85817744D02*
X61549990Y-85865363D01*
X61549990Y-85865363D02*
X61740466Y-85865363D01*
X61740466Y-85865363D02*
X61835704Y-85817744D01*
X61835704Y-85817744D02*
X61883323Y-85770125D01*
X61883323Y-85770125D02*
X61930942Y-85674887D01*
%TO.C,K18*%
X78454752Y-86246316D02*
X78454752Y-85246316D01*
X79026180Y-86246316D02*
X78597609Y-85674887D01*
X79026180Y-85246316D02*
X78454752Y-85817744D01*
X79978561Y-86246316D02*
X79407133Y-86246316D01*
X79692847Y-86246316D02*
X79692847Y-85246316D01*
X79692847Y-85246316D02*
X79597609Y-85389173D01*
X79597609Y-85389173D02*
X79502371Y-85484411D01*
X79502371Y-85484411D02*
X79407133Y-85532030D01*
X80549990Y-85674887D02*
X80454752Y-85627268D01*
X80454752Y-85627268D02*
X80407133Y-85579649D01*
X80407133Y-85579649D02*
X80359514Y-85484411D01*
X80359514Y-85484411D02*
X80359514Y-85436792D01*
X80359514Y-85436792D02*
X80407133Y-85341554D01*
X80407133Y-85341554D02*
X80454752Y-85293935D01*
X80454752Y-85293935D02*
X80549990Y-85246316D01*
X80549990Y-85246316D02*
X80740466Y-85246316D01*
X80740466Y-85246316D02*
X80835704Y-85293935D01*
X80835704Y-85293935D02*
X80883323Y-85341554D01*
X80883323Y-85341554D02*
X80930942Y-85436792D01*
X80930942Y-85436792D02*
X80930942Y-85484411D01*
X80930942Y-85484411D02*
X80883323Y-85579649D01*
X80883323Y-85579649D02*
X80835704Y-85627268D01*
X80835704Y-85627268D02*
X80740466Y-85674887D01*
X80740466Y-85674887D02*
X80549990Y-85674887D01*
X80549990Y-85674887D02*
X80454752Y-85722506D01*
X80454752Y-85722506D02*
X80407133Y-85770125D01*
X80407133Y-85770125D02*
X80359514Y-85865363D01*
X80359514Y-85865363D02*
X80359514Y-86055839D01*
X80359514Y-86055839D02*
X80407133Y-86151077D01*
X80407133Y-86151077D02*
X80454752Y-86198697D01*
X80454752Y-86198697D02*
X80549990Y-86246316D01*
X80549990Y-86246316D02*
X80740466Y-86246316D01*
X80740466Y-86246316D02*
X80835704Y-86198697D01*
X80835704Y-86198697D02*
X80883323Y-86151077D01*
X80883323Y-86151077D02*
X80930942Y-86055839D01*
X80930942Y-86055839D02*
X80930942Y-85865363D01*
X80930942Y-85865363D02*
X80883323Y-85770125D01*
X80883323Y-85770125D02*
X80835704Y-85722506D01*
X80835704Y-85722506D02*
X80740466Y-85674887D01*
%TO.C,K17*%
X97454752Y-86246316D02*
X97454752Y-85246316D01*
X98026180Y-86246316D02*
X97597609Y-85674887D01*
X98026180Y-85246316D02*
X97454752Y-85817744D01*
X98978561Y-86246316D02*
X98407133Y-86246316D01*
X98692847Y-86246316D02*
X98692847Y-85246316D01*
X98692847Y-85246316D02*
X98597609Y-85389173D01*
X98597609Y-85389173D02*
X98502371Y-85484411D01*
X98502371Y-85484411D02*
X98407133Y-85532030D01*
X99311895Y-85246316D02*
X99978561Y-85246316D01*
X99978561Y-85246316D02*
X99549990Y-86246316D01*
%TO.C,K16*%
X116454752Y-86246316D02*
X116454752Y-85246316D01*
X117026180Y-86246316D02*
X116597609Y-85674887D01*
X117026180Y-85246316D02*
X116454752Y-85817744D01*
X117978561Y-86246316D02*
X117407133Y-86246316D01*
X117692847Y-86246316D02*
X117692847Y-85246316D01*
X117692847Y-85246316D02*
X117597609Y-85389173D01*
X117597609Y-85389173D02*
X117502371Y-85484411D01*
X117502371Y-85484411D02*
X117407133Y-85532030D01*
X118835704Y-85246316D02*
X118645228Y-85246316D01*
X118645228Y-85246316D02*
X118549990Y-85293935D01*
X118549990Y-85293935D02*
X118502371Y-85341554D01*
X118502371Y-85341554D02*
X118407133Y-85484411D01*
X118407133Y-85484411D02*
X118359514Y-85674887D01*
X118359514Y-85674887D02*
X118359514Y-86055839D01*
X118359514Y-86055839D02*
X118407133Y-86151077D01*
X118407133Y-86151077D02*
X118454752Y-86198697D01*
X118454752Y-86198697D02*
X118549990Y-86246316D01*
X118549990Y-86246316D02*
X118740466Y-86246316D01*
X118740466Y-86246316D02*
X118835704Y-86198697D01*
X118835704Y-86198697D02*
X118883323Y-86151077D01*
X118883323Y-86151077D02*
X118930942Y-86055839D01*
X118930942Y-86055839D02*
X118930942Y-85817744D01*
X118930942Y-85817744D02*
X118883323Y-85722506D01*
X118883323Y-85722506D02*
X118835704Y-85674887D01*
X118835704Y-85674887D02*
X118740466Y-85627268D01*
X118740466Y-85627268D02*
X118549990Y-85627268D01*
X118549990Y-85627268D02*
X118454752Y-85674887D01*
X118454752Y-85674887D02*
X118407133Y-85722506D01*
X118407133Y-85722506D02*
X118359514Y-85817744D01*
%TO.C,K15*%
X135454752Y-86246316D02*
X135454752Y-85246316D01*
X136026180Y-86246316D02*
X135597609Y-85674887D01*
X136026180Y-85246316D02*
X135454752Y-85817744D01*
X136978561Y-86246316D02*
X136407133Y-86246316D01*
X136692847Y-86246316D02*
X136692847Y-85246316D01*
X136692847Y-85246316D02*
X136597609Y-85389173D01*
X136597609Y-85389173D02*
X136502371Y-85484411D01*
X136502371Y-85484411D02*
X136407133Y-85532030D01*
X137883323Y-85246316D02*
X137407133Y-85246316D01*
X137407133Y-85246316D02*
X137359514Y-85722506D01*
X137359514Y-85722506D02*
X137407133Y-85674887D01*
X137407133Y-85674887D02*
X137502371Y-85627268D01*
X137502371Y-85627268D02*
X137740466Y-85627268D01*
X137740466Y-85627268D02*
X137835704Y-85674887D01*
X137835704Y-85674887D02*
X137883323Y-85722506D01*
X137883323Y-85722506D02*
X137930942Y-85817744D01*
X137930942Y-85817744D02*
X137930942Y-86055839D01*
X137930942Y-86055839D02*
X137883323Y-86151077D01*
X137883323Y-86151077D02*
X137835704Y-86198697D01*
X137835704Y-86198697D02*
X137740466Y-86246316D01*
X137740466Y-86246316D02*
X137502371Y-86246316D01*
X137502371Y-86246316D02*
X137407133Y-86198697D01*
X137407133Y-86198697D02*
X137359514Y-86151077D01*
%TO.C,K14*%
X135454752Y-67246316D02*
X135454752Y-66246316D01*
X136026180Y-67246316D02*
X135597609Y-66674887D01*
X136026180Y-66246316D02*
X135454752Y-66817744D01*
X136978561Y-67246316D02*
X136407133Y-67246316D01*
X136692847Y-67246316D02*
X136692847Y-66246316D01*
X136692847Y-66246316D02*
X136597609Y-66389173D01*
X136597609Y-66389173D02*
X136502371Y-66484411D01*
X136502371Y-66484411D02*
X136407133Y-66532030D01*
X137835704Y-66579649D02*
X137835704Y-67246316D01*
X137597609Y-66198697D02*
X137359514Y-66912982D01*
X137359514Y-66912982D02*
X137978561Y-66912982D01*
%TO.C,K13*%
X116454752Y-67246316D02*
X116454752Y-66246316D01*
X117026180Y-67246316D02*
X116597609Y-66674887D01*
X117026180Y-66246316D02*
X116454752Y-66817744D01*
X117978561Y-67246316D02*
X117407133Y-67246316D01*
X117692847Y-67246316D02*
X117692847Y-66246316D01*
X117692847Y-66246316D02*
X117597609Y-66389173D01*
X117597609Y-66389173D02*
X117502371Y-66484411D01*
X117502371Y-66484411D02*
X117407133Y-66532030D01*
X118311895Y-66246316D02*
X118930942Y-66246316D01*
X118930942Y-66246316D02*
X118597609Y-66627268D01*
X118597609Y-66627268D02*
X118740466Y-66627268D01*
X118740466Y-66627268D02*
X118835704Y-66674887D01*
X118835704Y-66674887D02*
X118883323Y-66722506D01*
X118883323Y-66722506D02*
X118930942Y-66817744D01*
X118930942Y-66817744D02*
X118930942Y-67055839D01*
X118930942Y-67055839D02*
X118883323Y-67151077D01*
X118883323Y-67151077D02*
X118835704Y-67198697D01*
X118835704Y-67198697D02*
X118740466Y-67246316D01*
X118740466Y-67246316D02*
X118454752Y-67246316D01*
X118454752Y-67246316D02*
X118359514Y-67198697D01*
X118359514Y-67198697D02*
X118311895Y-67151077D01*
%TO.C,K12*%
X97454752Y-67246316D02*
X97454752Y-66246316D01*
X98026180Y-67246316D02*
X97597609Y-66674887D01*
X98026180Y-66246316D02*
X97454752Y-66817744D01*
X98978561Y-67246316D02*
X98407133Y-67246316D01*
X98692847Y-67246316D02*
X98692847Y-66246316D01*
X98692847Y-66246316D02*
X98597609Y-66389173D01*
X98597609Y-66389173D02*
X98502371Y-66484411D01*
X98502371Y-66484411D02*
X98407133Y-66532030D01*
X99359514Y-66341554D02*
X99407133Y-66293935D01*
X99407133Y-66293935D02*
X99502371Y-66246316D01*
X99502371Y-66246316D02*
X99740466Y-66246316D01*
X99740466Y-66246316D02*
X99835704Y-66293935D01*
X99835704Y-66293935D02*
X99883323Y-66341554D01*
X99883323Y-66341554D02*
X99930942Y-66436792D01*
X99930942Y-66436792D02*
X99930942Y-66532030D01*
X99930942Y-66532030D02*
X99883323Y-66674887D01*
X99883323Y-66674887D02*
X99311895Y-67246316D01*
X99311895Y-67246316D02*
X99930942Y-67246316D01*
%TO.C,K11*%
X78454752Y-67246316D02*
X78454752Y-66246316D01*
X79026180Y-67246316D02*
X78597609Y-66674887D01*
X79026180Y-66246316D02*
X78454752Y-66817744D01*
X79978561Y-67246316D02*
X79407133Y-67246316D01*
X79692847Y-67246316D02*
X79692847Y-66246316D01*
X79692847Y-66246316D02*
X79597609Y-66389173D01*
X79597609Y-66389173D02*
X79502371Y-66484411D01*
X79502371Y-66484411D02*
X79407133Y-66532030D01*
X80930942Y-67246316D02*
X80359514Y-67246316D01*
X80645228Y-67246316D02*
X80645228Y-66246316D01*
X80645228Y-66246316D02*
X80549990Y-66389173D01*
X80549990Y-66389173D02*
X80454752Y-66484411D01*
X80454752Y-66484411D02*
X80359514Y-66532030D01*
%TO.C,K10*%
X59454752Y-67246316D02*
X59454752Y-66246316D01*
X60026180Y-67246316D02*
X59597609Y-66674887D01*
X60026180Y-66246316D02*
X59454752Y-66817744D01*
X60978561Y-67246316D02*
X60407133Y-67246316D01*
X60692847Y-67246316D02*
X60692847Y-66246316D01*
X60692847Y-66246316D02*
X60597609Y-66389173D01*
X60597609Y-66389173D02*
X60502371Y-66484411D01*
X60502371Y-66484411D02*
X60407133Y-66532030D01*
X61597609Y-66246316D02*
X61692847Y-66246316D01*
X61692847Y-66246316D02*
X61788085Y-66293935D01*
X61788085Y-66293935D02*
X61835704Y-66341554D01*
X61835704Y-66341554D02*
X61883323Y-66436792D01*
X61883323Y-66436792D02*
X61930942Y-66627268D01*
X61930942Y-66627268D02*
X61930942Y-66865363D01*
X61930942Y-66865363D02*
X61883323Y-67055839D01*
X61883323Y-67055839D02*
X61835704Y-67151077D01*
X61835704Y-67151077D02*
X61788085Y-67198697D01*
X61788085Y-67198697D02*
X61692847Y-67246316D01*
X61692847Y-67246316D02*
X61597609Y-67246316D01*
X61597609Y-67246316D02*
X61502371Y-67198697D01*
X61502371Y-67198697D02*
X61454752Y-67151077D01*
X61454752Y-67151077D02*
X61407133Y-67055839D01*
X61407133Y-67055839D02*
X61359514Y-66865363D01*
X61359514Y-66865363D02*
X61359514Y-66627268D01*
X61359514Y-66627268D02*
X61407133Y-66436792D01*
X61407133Y-66436792D02*
X61454752Y-66341554D01*
X61454752Y-66341554D02*
X61502371Y-66293935D01*
X61502371Y-66293935D02*
X61597609Y-66246316D01*
%TO.C,K9*%
X59930943Y-48246316D02*
X59930943Y-47246316D01*
X60502371Y-48246316D02*
X60073800Y-47674887D01*
X60502371Y-47246316D02*
X59930943Y-47817744D01*
X60978562Y-48246316D02*
X61169038Y-48246316D01*
X61169038Y-48246316D02*
X61264276Y-48198697D01*
X61264276Y-48198697D02*
X61311895Y-48151077D01*
X61311895Y-48151077D02*
X61407133Y-48008220D01*
X61407133Y-48008220D02*
X61454752Y-47817744D01*
X61454752Y-47817744D02*
X61454752Y-47436792D01*
X61454752Y-47436792D02*
X61407133Y-47341554D01*
X61407133Y-47341554D02*
X61359514Y-47293935D01*
X61359514Y-47293935D02*
X61264276Y-47246316D01*
X61264276Y-47246316D02*
X61073800Y-47246316D01*
X61073800Y-47246316D02*
X60978562Y-47293935D01*
X60978562Y-47293935D02*
X60930943Y-47341554D01*
X60930943Y-47341554D02*
X60883324Y-47436792D01*
X60883324Y-47436792D02*
X60883324Y-47674887D01*
X60883324Y-47674887D02*
X60930943Y-47770125D01*
X60930943Y-47770125D02*
X60978562Y-47817744D01*
X60978562Y-47817744D02*
X61073800Y-47865363D01*
X61073800Y-47865363D02*
X61264276Y-47865363D01*
X61264276Y-47865363D02*
X61359514Y-47817744D01*
X61359514Y-47817744D02*
X61407133Y-47770125D01*
X61407133Y-47770125D02*
X61454752Y-47674887D01*
%TO.C,K8*%
X78930943Y-48246316D02*
X78930943Y-47246316D01*
X79502371Y-48246316D02*
X79073800Y-47674887D01*
X79502371Y-47246316D02*
X78930943Y-47817744D01*
X80073800Y-47674887D02*
X79978562Y-47627268D01*
X79978562Y-47627268D02*
X79930943Y-47579649D01*
X79930943Y-47579649D02*
X79883324Y-47484411D01*
X79883324Y-47484411D02*
X79883324Y-47436792D01*
X79883324Y-47436792D02*
X79930943Y-47341554D01*
X79930943Y-47341554D02*
X79978562Y-47293935D01*
X79978562Y-47293935D02*
X80073800Y-47246316D01*
X80073800Y-47246316D02*
X80264276Y-47246316D01*
X80264276Y-47246316D02*
X80359514Y-47293935D01*
X80359514Y-47293935D02*
X80407133Y-47341554D01*
X80407133Y-47341554D02*
X80454752Y-47436792D01*
X80454752Y-47436792D02*
X80454752Y-47484411D01*
X80454752Y-47484411D02*
X80407133Y-47579649D01*
X80407133Y-47579649D02*
X80359514Y-47627268D01*
X80359514Y-47627268D02*
X80264276Y-47674887D01*
X80264276Y-47674887D02*
X80073800Y-47674887D01*
X80073800Y-47674887D02*
X79978562Y-47722506D01*
X79978562Y-47722506D02*
X79930943Y-47770125D01*
X79930943Y-47770125D02*
X79883324Y-47865363D01*
X79883324Y-47865363D02*
X79883324Y-48055839D01*
X79883324Y-48055839D02*
X79930943Y-48151077D01*
X79930943Y-48151077D02*
X79978562Y-48198697D01*
X79978562Y-48198697D02*
X80073800Y-48246316D01*
X80073800Y-48246316D02*
X80264276Y-48246316D01*
X80264276Y-48246316D02*
X80359514Y-48198697D01*
X80359514Y-48198697D02*
X80407133Y-48151077D01*
X80407133Y-48151077D02*
X80454752Y-48055839D01*
X80454752Y-48055839D02*
X80454752Y-47865363D01*
X80454752Y-47865363D02*
X80407133Y-47770125D01*
X80407133Y-47770125D02*
X80359514Y-47722506D01*
X80359514Y-47722506D02*
X80264276Y-47674887D01*
%TO.C,K7*%
X97930943Y-48246316D02*
X97930943Y-47246316D01*
X98502371Y-48246316D02*
X98073800Y-47674887D01*
X98502371Y-47246316D02*
X97930943Y-47817744D01*
X98835705Y-47246316D02*
X99502371Y-47246316D01*
X99502371Y-47246316D02*
X99073800Y-48246316D01*
%TO.C,K6*%
X116930943Y-48246316D02*
X116930943Y-47246316D01*
X117502371Y-48246316D02*
X117073800Y-47674887D01*
X117502371Y-47246316D02*
X116930943Y-47817744D01*
X118359514Y-47246316D02*
X118169038Y-47246316D01*
X118169038Y-47246316D02*
X118073800Y-47293935D01*
X118073800Y-47293935D02*
X118026181Y-47341554D01*
X118026181Y-47341554D02*
X117930943Y-47484411D01*
X117930943Y-47484411D02*
X117883324Y-47674887D01*
X117883324Y-47674887D02*
X117883324Y-48055839D01*
X117883324Y-48055839D02*
X117930943Y-48151077D01*
X117930943Y-48151077D02*
X117978562Y-48198697D01*
X117978562Y-48198697D02*
X118073800Y-48246316D01*
X118073800Y-48246316D02*
X118264276Y-48246316D01*
X118264276Y-48246316D02*
X118359514Y-48198697D01*
X118359514Y-48198697D02*
X118407133Y-48151077D01*
X118407133Y-48151077D02*
X118454752Y-48055839D01*
X118454752Y-48055839D02*
X118454752Y-47817744D01*
X118454752Y-47817744D02*
X118407133Y-47722506D01*
X118407133Y-47722506D02*
X118359514Y-47674887D01*
X118359514Y-47674887D02*
X118264276Y-47627268D01*
X118264276Y-47627268D02*
X118073800Y-47627268D01*
X118073800Y-47627268D02*
X117978562Y-47674887D01*
X117978562Y-47674887D02*
X117930943Y-47722506D01*
X117930943Y-47722506D02*
X117883324Y-47817744D01*
%TO.C,K5*%
X135930943Y-48246316D02*
X135930943Y-47246316D01*
X136502371Y-48246316D02*
X136073800Y-47674887D01*
X136502371Y-47246316D02*
X135930943Y-47817744D01*
X137407133Y-47246316D02*
X136930943Y-47246316D01*
X136930943Y-47246316D02*
X136883324Y-47722506D01*
X136883324Y-47722506D02*
X136930943Y-47674887D01*
X136930943Y-47674887D02*
X137026181Y-47627268D01*
X137026181Y-47627268D02*
X137264276Y-47627268D01*
X137264276Y-47627268D02*
X137359514Y-47674887D01*
X137359514Y-47674887D02*
X137407133Y-47722506D01*
X137407133Y-47722506D02*
X137454752Y-47817744D01*
X137454752Y-47817744D02*
X137454752Y-48055839D01*
X137454752Y-48055839D02*
X137407133Y-48151077D01*
X137407133Y-48151077D02*
X137359514Y-48198697D01*
X137359514Y-48198697D02*
X137264276Y-48246316D01*
X137264276Y-48246316D02*
X137026181Y-48246316D01*
X137026181Y-48246316D02*
X136930943Y-48198697D01*
X136930943Y-48198697D02*
X136883324Y-48151077D01*
%TO.C,K4*%
X135930943Y-29246316D02*
X135930943Y-28246316D01*
X136502371Y-29246316D02*
X136073800Y-28674887D01*
X136502371Y-28246316D02*
X135930943Y-28817744D01*
X137359514Y-28579649D02*
X137359514Y-29246316D01*
X137121419Y-28198697D02*
X136883324Y-28912982D01*
X136883324Y-28912982D02*
X137502371Y-28912982D01*
%TO.C,K3*%
X116930943Y-29246316D02*
X116930943Y-28246316D01*
X117502371Y-29246316D02*
X117073800Y-28674887D01*
X117502371Y-28246316D02*
X116930943Y-28817744D01*
X117835705Y-28246316D02*
X118454752Y-28246316D01*
X118454752Y-28246316D02*
X118121419Y-28627268D01*
X118121419Y-28627268D02*
X118264276Y-28627268D01*
X118264276Y-28627268D02*
X118359514Y-28674887D01*
X118359514Y-28674887D02*
X118407133Y-28722506D01*
X118407133Y-28722506D02*
X118454752Y-28817744D01*
X118454752Y-28817744D02*
X118454752Y-29055839D01*
X118454752Y-29055839D02*
X118407133Y-29151077D01*
X118407133Y-29151077D02*
X118359514Y-29198697D01*
X118359514Y-29198697D02*
X118264276Y-29246316D01*
X118264276Y-29246316D02*
X117978562Y-29246316D01*
X117978562Y-29246316D02*
X117883324Y-29198697D01*
X117883324Y-29198697D02*
X117835705Y-29151077D01*
%TO.C,K2*%
X78930943Y-29246316D02*
X78930943Y-28246316D01*
X79502371Y-29246316D02*
X79073800Y-28674887D01*
X79502371Y-28246316D02*
X78930943Y-28817744D01*
X79883324Y-28341554D02*
X79930943Y-28293935D01*
X79930943Y-28293935D02*
X80026181Y-28246316D01*
X80026181Y-28246316D02*
X80264276Y-28246316D01*
X80264276Y-28246316D02*
X80359514Y-28293935D01*
X80359514Y-28293935D02*
X80407133Y-28341554D01*
X80407133Y-28341554D02*
X80454752Y-28436792D01*
X80454752Y-28436792D02*
X80454752Y-28532030D01*
X80454752Y-28532030D02*
X80407133Y-28674887D01*
X80407133Y-28674887D02*
X79835705Y-29246316D01*
X79835705Y-29246316D02*
X80454752Y-29246316D01*
%TO.C,K1*%
X59930943Y-29246316D02*
X59930943Y-28246316D01*
X60502371Y-29246316D02*
X60073800Y-28674887D01*
X60502371Y-28246316D02*
X59930943Y-28817744D01*
X61454752Y-29246316D02*
X60883324Y-29246316D01*
X61169038Y-29246316D02*
X61169038Y-28246316D01*
X61169038Y-28246316D02*
X61073800Y-28389173D01*
X61073800Y-28389173D02*
X60978562Y-28484411D01*
X60978562Y-28484411D02*
X60883324Y-28532030D01*
D13*
%TO.C,U1*%
X88496717Y-46509387D02*
X88496717Y-29509387D01*
X92896717Y-33438657D02*
X101896717Y-33438657D01*
X92896717Y-26085357D02*
X92896717Y-33438657D01*
X106296717Y-29509387D02*
X106296717Y-46509387D01*
X101896717Y-26085357D02*
X92896717Y-26085357D01*
X90496717Y-27510297D02*
X104296717Y-27510297D01*
X101896717Y-33438657D02*
X101896717Y-26085357D01*
X104296717Y-48509387D02*
X90496717Y-48509387D01*
D14*
X88496717Y-46509387D02*
G75*
G03*
X90496717Y-48509387I2000000J0D01*
G01*
X90496717Y-27509388D02*
G75*
G03*
X88496718Y-29509387I44610J-2044609D01*
G01*
X104296717Y-48509386D02*
G75*
G03*
X106296716Y-46509387I-44857J2044856D01*
G01*
X106296716Y-29509387D02*
G75*
G03*
X104296717Y-27509388I-2044611J-44612D01*
G01*
D15*
X108523717Y-29209387D02*
G75*
G03*
X108523717Y-29209387I-127000J0D01*
G01*
D16*
X88554469Y-46920342D02*
X88544564Y-46872337D01*
X88535673Y-46824077D01*
X88528053Y-46775562D01*
X88521449Y-46726794D01*
X88516116Y-46678026D01*
X88512052Y-46629005D01*
X88509004Y-46580237D01*
X88507225Y-46530961D01*
X88554469Y-46920342D01*
X106281384Y-29398914D02*
X106284432Y-29447682D01*
X106277320Y-29349893D01*
X106281384Y-29398914D01*
D14*
%TO.C,K24*%
X127226570Y-106558121D02*
X128696570Y-106558121D01*
X127226570Y-108843121D02*
X127226570Y-106558121D01*
X128696570Y-106558121D02*
X128696570Y-108843121D01*
D12*
X137812597Y-119362626D02*
X137812597Y-118762626D01*
X138412597Y-118762626D01*
X137812597Y-119362626D01*
G36*
X137812597Y-119362626D02*
G01*
X137812597Y-118762626D01*
X138412597Y-118762626D01*
X137812597Y-119362626D01*
G37*
D14*
%TO.C,K23*%
X108226570Y-106558121D02*
X109696570Y-106558121D01*
X108226570Y-108843121D02*
X108226570Y-106558121D01*
X109696570Y-106558121D02*
X109696570Y-108843121D01*
D12*
X118812597Y-119362626D02*
X118812597Y-118762626D01*
X119412597Y-118762626D01*
X118812597Y-119362626D01*
G36*
X118812597Y-119362626D02*
G01*
X118812597Y-118762626D01*
X119412597Y-118762626D01*
X118812597Y-119362626D01*
G37*
D14*
%TO.C,K22*%
X89226570Y-106558121D02*
X90696570Y-106558121D01*
X89226570Y-108843121D02*
X89226570Y-106558121D01*
X90696570Y-106558121D02*
X90696570Y-108843121D01*
D12*
X99812597Y-119362626D02*
X99812597Y-118762626D01*
X100412597Y-118762626D01*
X99812597Y-119362626D01*
G36*
X99812597Y-119362626D02*
G01*
X99812597Y-118762626D01*
X100412597Y-118762626D01*
X99812597Y-119362626D01*
G37*
D14*
%TO.C,K21*%
X70226570Y-106558121D02*
X71696570Y-106558121D01*
X70226570Y-108843121D02*
X70226570Y-106558121D01*
X71696570Y-106558121D02*
X71696570Y-108843121D01*
D12*
X80812597Y-119362626D02*
X80812597Y-118762626D01*
X81412597Y-118762626D01*
X80812597Y-119362626D01*
G36*
X80812597Y-119362626D02*
G01*
X80812597Y-118762626D01*
X81412597Y-118762626D01*
X80812597Y-119362626D01*
G37*
D14*
%TO.C,K20*%
X51226570Y-106558121D02*
X52696570Y-106558121D01*
X51226570Y-108843121D02*
X51226570Y-106558121D01*
X52696570Y-106558121D02*
X52696570Y-108843121D01*
D12*
X61812597Y-119362626D02*
X61812597Y-118762626D01*
X62412597Y-118762626D01*
X61812597Y-119362626D01*
G36*
X61812597Y-119362626D02*
G01*
X61812597Y-118762626D01*
X62412597Y-118762626D01*
X61812597Y-119362626D01*
G37*
D14*
%TO.C,K19*%
X51226570Y-87558121D02*
X52696570Y-87558121D01*
X51226570Y-89843121D02*
X51226570Y-87558121D01*
X52696570Y-87558121D02*
X52696570Y-89843121D01*
D12*
X58179038Y-96508897D02*
X57579038Y-96508897D01*
X58179038Y-95908897D01*
X58179038Y-96508897D01*
G36*
X58179038Y-96508897D02*
G01*
X57579038Y-96508897D01*
X58179038Y-95908897D01*
X58179038Y-96508897D01*
G37*
D14*
%TO.C,K18*%
X70226570Y-87558121D02*
X71696570Y-87558121D01*
X70226570Y-89843121D02*
X70226570Y-87558121D01*
X71696570Y-87558121D02*
X71696570Y-89843121D01*
D12*
X77179038Y-96508897D02*
X76579038Y-96508897D01*
X77179038Y-95908897D01*
X77179038Y-96508897D01*
G36*
X77179038Y-96508897D02*
G01*
X76579038Y-96508897D01*
X77179038Y-95908897D01*
X77179038Y-96508897D01*
G37*
D14*
%TO.C,K17*%
X89226570Y-87558121D02*
X90696570Y-87558121D01*
X89226570Y-89843121D02*
X89226570Y-87558121D01*
X90696570Y-87558121D02*
X90696570Y-89843121D01*
D12*
X96179038Y-96508897D02*
X95579038Y-96508897D01*
X96179038Y-95908897D01*
X96179038Y-96508897D01*
G36*
X96179038Y-96508897D02*
G01*
X95579038Y-96508897D01*
X96179038Y-95908897D01*
X96179038Y-96508897D01*
G37*
D14*
%TO.C,K16*%
X108226570Y-87558121D02*
X109696570Y-87558121D01*
X108226570Y-89843121D02*
X108226570Y-87558121D01*
X109696570Y-87558121D02*
X109696570Y-89843121D01*
D12*
X115179038Y-96508897D02*
X114579038Y-96508897D01*
X115179038Y-95908897D01*
X115179038Y-96508897D01*
G36*
X115179038Y-96508897D02*
G01*
X114579038Y-96508897D01*
X115179038Y-95908897D01*
X115179038Y-96508897D01*
G37*
D14*
%TO.C,K15*%
X127226570Y-87558121D02*
X128696570Y-87558121D01*
X127226570Y-89843121D02*
X127226570Y-87558121D01*
X128696570Y-87558121D02*
X128696570Y-89843121D01*
D12*
X134179038Y-96508897D02*
X133579038Y-96508897D01*
X134179038Y-95908897D01*
X134179038Y-96508897D01*
G36*
X134179038Y-96508897D02*
G01*
X133579038Y-96508897D01*
X134179038Y-95908897D01*
X134179038Y-96508897D01*
G37*
D14*
%TO.C,K14*%
X127226570Y-68558121D02*
X128696570Y-68558121D01*
X127226570Y-70843121D02*
X127226570Y-68558121D01*
X128696570Y-68558121D02*
X128696570Y-70843121D01*
D12*
X137812597Y-81362626D02*
X137812597Y-80762626D01*
X138412597Y-80762626D01*
X137812597Y-81362626D01*
G36*
X137812597Y-81362626D02*
G01*
X137812597Y-80762626D01*
X138412597Y-80762626D01*
X137812597Y-81362626D01*
G37*
D14*
%TO.C,K13*%
X108226570Y-68558121D02*
X109696570Y-68558121D01*
X108226570Y-70843121D02*
X108226570Y-68558121D01*
X109696570Y-68558121D02*
X109696570Y-70843121D01*
D12*
X118812597Y-81362626D02*
X118812597Y-80762626D01*
X119412597Y-80762626D01*
X118812597Y-81362626D01*
G36*
X118812597Y-81362626D02*
G01*
X118812597Y-80762626D01*
X119412597Y-80762626D01*
X118812597Y-81362626D01*
G37*
D14*
%TO.C,K12*%
X89226570Y-68558121D02*
X90696570Y-68558121D01*
X89226570Y-70843121D02*
X89226570Y-68558121D01*
X90696570Y-68558121D02*
X90696570Y-70843121D01*
D12*
X99812597Y-81362626D02*
X99812597Y-80762626D01*
X100412597Y-80762626D01*
X99812597Y-81362626D01*
G36*
X99812597Y-81362626D02*
G01*
X99812597Y-80762626D01*
X100412597Y-80762626D01*
X99812597Y-81362626D01*
G37*
D14*
%TO.C,K11*%
X70226570Y-68558121D02*
X71696570Y-68558121D01*
X70226570Y-70843121D02*
X70226570Y-68558121D01*
X71696570Y-68558121D02*
X71696570Y-70843121D01*
D12*
X80812597Y-81362626D02*
X80812597Y-80762626D01*
X81412597Y-80762626D01*
X80812597Y-81362626D01*
G36*
X80812597Y-81362626D02*
G01*
X80812597Y-80762626D01*
X81412597Y-80762626D01*
X80812597Y-81362626D01*
G37*
D14*
%TO.C,K10*%
X51226570Y-68558121D02*
X52696570Y-68558121D01*
X51226570Y-70843121D02*
X51226570Y-68558121D01*
X52696570Y-68558121D02*
X52696570Y-70843121D01*
D12*
X61812597Y-81362626D02*
X61812597Y-80762626D01*
X62412597Y-80762626D01*
X61812597Y-81362626D01*
G36*
X61812597Y-81362626D02*
G01*
X61812597Y-80762626D01*
X62412597Y-80762626D01*
X61812597Y-81362626D01*
G37*
D14*
%TO.C,K9*%
X51226570Y-49558121D02*
X52696570Y-49558121D01*
X51226570Y-51843121D02*
X51226570Y-49558121D01*
X52696570Y-49558121D02*
X52696570Y-51843121D01*
D12*
X58179038Y-58508897D02*
X57579038Y-58508897D01*
X58179038Y-57908897D01*
X58179038Y-58508897D01*
G36*
X58179038Y-58508897D02*
G01*
X57579038Y-58508897D01*
X58179038Y-57908897D01*
X58179038Y-58508897D01*
G37*
D14*
%TO.C,K8*%
X70226570Y-49558121D02*
X71696570Y-49558121D01*
X70226570Y-51843121D02*
X70226570Y-49558121D01*
X71696570Y-49558121D02*
X71696570Y-51843121D01*
D12*
X77179038Y-58508897D02*
X76579038Y-58508897D01*
X77179038Y-57908897D01*
X77179038Y-58508897D01*
G36*
X77179038Y-58508897D02*
G01*
X76579038Y-58508897D01*
X77179038Y-57908897D01*
X77179038Y-58508897D01*
G37*
D14*
%TO.C,K7*%
X89226570Y-49558121D02*
X90696570Y-49558121D01*
X89226570Y-51843121D02*
X89226570Y-49558121D01*
X90696570Y-49558121D02*
X90696570Y-51843121D01*
D12*
X96179038Y-58508897D02*
X95579038Y-58508897D01*
X96179038Y-57908897D01*
X96179038Y-58508897D01*
G36*
X96179038Y-58508897D02*
G01*
X95579038Y-58508897D01*
X96179038Y-57908897D01*
X96179038Y-58508897D01*
G37*
D14*
%TO.C,K6*%
X108226570Y-49558121D02*
X109696570Y-49558121D01*
X108226570Y-51843121D02*
X108226570Y-49558121D01*
X109696570Y-49558121D02*
X109696570Y-51843121D01*
D12*
X115179038Y-58508897D02*
X114579038Y-58508897D01*
X115179038Y-57908897D01*
X115179038Y-58508897D01*
G36*
X115179038Y-58508897D02*
G01*
X114579038Y-58508897D01*
X115179038Y-57908897D01*
X115179038Y-58508897D01*
G37*
D14*
%TO.C,K5*%
X127226570Y-49558121D02*
X128696570Y-49558121D01*
X127226570Y-51843121D02*
X127226570Y-49558121D01*
X128696570Y-49558121D02*
X128696570Y-51843121D01*
D12*
X134179038Y-58508897D02*
X133579038Y-58508897D01*
X134179038Y-57908897D01*
X134179038Y-58508897D01*
G36*
X134179038Y-58508897D02*
G01*
X133579038Y-58508897D01*
X134179038Y-57908897D01*
X134179038Y-58508897D01*
G37*
D14*
%TO.C,K4*%
X127226570Y-30558121D02*
X128696570Y-30558121D01*
X127226570Y-32843121D02*
X127226570Y-30558121D01*
X128696570Y-30558121D02*
X128696570Y-32843121D01*
D12*
X137812597Y-43362626D02*
X137812597Y-42762626D01*
X138412597Y-42762626D01*
X137812597Y-43362626D01*
G36*
X137812597Y-43362626D02*
G01*
X137812597Y-42762626D01*
X138412597Y-42762626D01*
X137812597Y-43362626D01*
G37*
D14*
%TO.C,K3*%
X108226570Y-30558121D02*
X109696570Y-30558121D01*
X108226570Y-32843121D02*
X108226570Y-30558121D01*
X109696570Y-30558121D02*
X109696570Y-32843121D01*
D12*
X118812597Y-43362626D02*
X118812597Y-42762626D01*
X119412597Y-42762626D01*
X118812597Y-43362626D01*
G36*
X118812597Y-43362626D02*
G01*
X118812597Y-42762626D01*
X119412597Y-42762626D01*
X118812597Y-43362626D01*
G37*
%TO.C,K2*%
X80812597Y-43362626D02*
X80812597Y-42762626D01*
X81412597Y-42762626D01*
X80812597Y-43362626D01*
G36*
X80812597Y-43362626D02*
G01*
X80812597Y-42762626D01*
X81412597Y-42762626D01*
X80812597Y-43362626D01*
G37*
D14*
X71696570Y-30558121D02*
X71696570Y-32843121D01*
X70226570Y-32843121D02*
X70226570Y-30558121D01*
X70226570Y-30558121D02*
X71696570Y-30558121D01*
%TO.C,K1*%
D12*
X61812597Y-43362626D02*
X61812597Y-42762626D01*
X62412597Y-42762626D01*
X61812597Y-43362626D01*
G36*
X61812597Y-43362626D02*
G01*
X61812597Y-42762626D01*
X62412597Y-42762626D01*
X61812597Y-43362626D01*
G37*
D14*
X52696570Y-30558121D02*
X52696570Y-32843121D01*
X51226570Y-32843121D02*
X51226570Y-30558121D01*
X51226570Y-30558121D02*
X52696570Y-30558121D01*
%TD*%
M02*
