%TF.GenerationSoftware,KiCad,Pcbnew,7.0.5*%
%TF.CreationDate,2023-08-18T22:00:11-06:00*%
%TF.ProjectId,switch_tester_macro_pad_plate,73776974-6368-45f7-9465-737465725f6d,rev?*%
%TF.SameCoordinates,Original*%
%TF.FileFunction,Legend,Top*%
%TF.FilePolarity,Positive*%
%FSLAX46Y46*%
G04 Gerber Fmt 4.6, Leading zero omitted, Abs format (unit mm)*
G04 Created by KiCad (PCBNEW 7.0.5) date 2023-08-18 22:00:11*
%MOMM*%
%LPD*%
G01*
G04 APERTURE LIST*
%ADD10C,0.125000*%
%ADD11C,0.150000*%
G04 APERTURE END LIST*
D10*
X59320331Y-35371119D02*
X59320331Y-34704452D01*
X59320331Y-34799690D02*
X59367950Y-34752071D01*
X59367950Y-34752071D02*
X59463188Y-34704452D01*
X59463188Y-34704452D02*
X59606045Y-34704452D01*
X59606045Y-34704452D02*
X59701283Y-34752071D01*
X59701283Y-34752071D02*
X59748902Y-34847309D01*
X59748902Y-34847309D02*
X59748902Y-35371119D01*
X59748902Y-34847309D02*
X59796521Y-34752071D01*
X59796521Y-34752071D02*
X59891759Y-34704452D01*
X59891759Y-34704452D02*
X60034616Y-34704452D01*
X60034616Y-34704452D02*
X60129855Y-34752071D01*
X60129855Y-34752071D02*
X60177474Y-34847309D01*
X60177474Y-34847309D02*
X60177474Y-35371119D01*
X60653664Y-35371119D02*
X60653664Y-34704452D01*
X60653664Y-34894928D02*
X60701283Y-34799690D01*
X60701283Y-34799690D02*
X60748902Y-34752071D01*
X60748902Y-34752071D02*
X60844140Y-34704452D01*
X60844140Y-34704452D02*
X60939378Y-34704452D01*
X61986998Y-35323500D02*
X62082236Y-35371119D01*
X62082236Y-35371119D02*
X62272712Y-35371119D01*
X62272712Y-35371119D02*
X62367950Y-35323500D01*
X62367950Y-35323500D02*
X62415569Y-35228261D01*
X62415569Y-35228261D02*
X62415569Y-35180642D01*
X62415569Y-35180642D02*
X62367950Y-35085404D01*
X62367950Y-35085404D02*
X62272712Y-35037785D01*
X62272712Y-35037785D02*
X62129855Y-35037785D01*
X62129855Y-35037785D02*
X62034617Y-34990166D01*
X62034617Y-34990166D02*
X61986998Y-34894928D01*
X61986998Y-34894928D02*
X61986998Y-34847309D01*
X61986998Y-34847309D02*
X62034617Y-34752071D01*
X62034617Y-34752071D02*
X62129855Y-34704452D01*
X62129855Y-34704452D02*
X62272712Y-34704452D01*
X62272712Y-34704452D02*
X62367950Y-34752071D01*
X62748903Y-34704452D02*
X62939379Y-35371119D01*
X62939379Y-35371119D02*
X63129855Y-34894928D01*
X63129855Y-34894928D02*
X63320331Y-35371119D01*
X63320331Y-35371119D02*
X63510807Y-34704452D01*
X63891760Y-35371119D02*
X63891760Y-34704452D01*
X63891760Y-34371119D02*
X63844141Y-34418738D01*
X63844141Y-34418738D02*
X63891760Y-34466357D01*
X63891760Y-34466357D02*
X63939379Y-34418738D01*
X63939379Y-34418738D02*
X63891760Y-34371119D01*
X63891760Y-34371119D02*
X63891760Y-34466357D01*
X64225093Y-34704452D02*
X64606045Y-34704452D01*
X64367950Y-34371119D02*
X64367950Y-35228261D01*
X64367950Y-35228261D02*
X64415569Y-35323500D01*
X64415569Y-35323500D02*
X64510807Y-35371119D01*
X64510807Y-35371119D02*
X64606045Y-35371119D01*
X65367950Y-35323500D02*
X65272712Y-35371119D01*
X65272712Y-35371119D02*
X65082236Y-35371119D01*
X65082236Y-35371119D02*
X64986998Y-35323500D01*
X64986998Y-35323500D02*
X64939379Y-35275880D01*
X64939379Y-35275880D02*
X64891760Y-35180642D01*
X64891760Y-35180642D02*
X64891760Y-34894928D01*
X64891760Y-34894928D02*
X64939379Y-34799690D01*
X64939379Y-34799690D02*
X64986998Y-34752071D01*
X64986998Y-34752071D02*
X65082236Y-34704452D01*
X65082236Y-34704452D02*
X65272712Y-34704452D01*
X65272712Y-34704452D02*
X65367950Y-34752071D01*
X65796522Y-35371119D02*
X65796522Y-34371119D01*
X66225093Y-35371119D02*
X66225093Y-34847309D01*
X66225093Y-34847309D02*
X66177474Y-34752071D01*
X66177474Y-34752071D02*
X66082236Y-34704452D01*
X66082236Y-34704452D02*
X65939379Y-34704452D01*
X65939379Y-34704452D02*
X65844141Y-34752071D01*
X65844141Y-34752071D02*
X65796522Y-34799690D01*
D11*
X60500000Y-28000000D02*
G75*
G03*
X64500000Y-28000000I2000000J1500000D01*
G01*
X62500000Y-21500000D02*
X62500000Y-16500000D01*
X55500000Y-21500000D02*
X69500000Y-21500000D01*
X69500000Y-25000000D02*
G75*
G03*
X69500000Y-25000000I-2000000J0D01*
G01*
X59500000Y-25000000D02*
G75*
G03*
X59500000Y-25000000I-2000000J0D01*
G01*
X69500000Y-25000000D02*
X72500000Y-25000000D01*
X52500000Y-25000000D02*
X55500000Y-25000000D01*
M02*
